<?plantuml 1.2026.2?><svg xmlns="http://www.w3.org/2000/svg" xmlns:xlink="http://www.w3.org/1999/xlink" contentStyleType="text/css" data-diagram-type="ACTIVITY" height="1044px" preserveAspectRatio="none" style="width:319px;height:1044px;background:#FFFFFF;" version="1.1" viewBox="0 0 319 1044" width="319px" zoomAndPan="magnify"><defs/><g><ellipse cx="157.651" cy="20" fill="#222222" rx="10" ry="10" style="stroke:#222222;stroke-width:1;"/><rect fill="#F1F1F1" height="36.3441" rx="12.5" ry="12.5" style="stroke:#181818;stroke-width:0.5;" width="98.2046" x="108.5487" y="50"/><text fill="#000000" font-family="sans-serif" font-size="12" lengthAdjust="spacing" textLength="78.2046" x="118.5487" y="72.8281">setup-created</text><rect fill="#F1F1F1" height="36.3441" rx="12.5" ry="12.5" style="stroke:#181818;stroke-width:0.5;" width="122.4927" x="96.4046" y="106.3441"/><text fill="#000000" font-family="sans-serif" font-size="12" lengthAdjust="spacing" textLength="102.4927" x="106.4046" y="129.1722">Compile Template</text><rect fill="#F1F1F1" height="36.3441" rx="12.5" ry="12.5" style="stroke:#181818;stroke-width:0.5;" width="194.9373" x="60.1823" y="162.6882"/><text fill="#000000" font-family="sans-serif" font-size="12" lengthAdjust="spacing" textLength="174.9373" x="70.1823" y="185.5163">beforeMount / onBeforeMount</text><rect fill="#F1F1F1" height="36.3441" rx="12.5" ry="12.5" style="stroke:#181818;stroke-width:0.5;" width="107.2526" x="104.0247" y="219.0323"/><text fill="#000000" font-family="sans-serif" font-size="12" lengthAdjust="spacing" textLength="87.2526" x="114.0247" y="241.8604">app.$el created</text><rect fill="#F1F1F1" height="36.3441" rx="12.5" ry="12.5" style="stroke:#181818;stroke-width:0.5;" width="148.6289" x="83.3365" y="275.3765"/><text fill="#000000" font-family="sans-serif" font-size="12" lengthAdjust="spacing" textLength="128.6289" x="93.3365" y="298.2045">mounted / onMounted</text><rect fill="#F1F1F1" height="36.3441" rx="12.5" ry="12.5" style="stroke:#181818;stroke-width:0.5;" width="123.4767" x="95.9126" y="331.7206"/><text fill="#000000" font-family="sans-serif" font-size="12" lengthAdjust="spacing" textLength="103.4767" x="105.9126" y="354.5487">Active Component</text><rect fill="#F1F1F1" height="36.3441" rx="12.5" ry="12.5" style="stroke:#181818;stroke-width:0.5;" width="203.0493" x="56.1263" y="494.8145"/><text fill="#000000" font-family="sans-serif" font-size="12" lengthAdjust="spacing" textLength="183.0493" x="66.1263" y="517.6426">beforeUpdate / onBeforeUpdate</text><rect fill="#F1F1F1" height="36.3441" rx="12.5" ry="12.5" style="stroke:#181818;stroke-width:0.5;" width="145.9169" x="84.6925" y="551.1587"/><text fill="#000000" font-family="sans-serif" font-size="12" lengthAdjust="spacing" textLength="125.9169" x="94.6925" y="573.9867">Virtual DOM re-render</text><rect fill="#F1F1F1" height="36.3441" rx="12.5" ry="12.5" style="stroke:#181818;stroke-width:0.5;" width="141.5128" x="86.8945" y="607.5028"/><text fill="#000000" font-family="sans-serif" font-size="12" lengthAdjust="spacing" textLength="121.5128" x="96.8945" y="630.3309">updated / onUpdated</text><polygon fill="#F1F1F1" points="114.4268,445.3236,200.8752,445.3236,212.8752,457.3236,200.8752,469.3236,114.4268,469.3236,102.4268,457.3236,114.4268,445.3236" style="stroke:#181818;stroke-width:0.5;"/><text fill="#000000" font-family="sans-serif" font-size="11" lengthAdjust="spacing" textLength="8.1069" x="161.651" y="481.0825">s&#237;</text><text fill="#000000" font-family="sans-serif" font-size="11" lengthAdjust="spacing" textLength="86.4484" x="114.4268" y="461.5916">reactive change?</text><polygon fill="#F1F1F1" points="157.651,663.8469,169.651,675.8469,157.651,687.8469,145.651,675.8469,157.651,663.8469" style="stroke:#181818;stroke-width:0.5;"/><polygon fill="#F1F1F1" points="99.3844,388.0647,215.9176,388.0647,227.9176,400.0647,215.9176,412.0647,99.3844,412.0647,87.3844,400.0647,99.3844,388.0647" style="stroke:#181818;stroke-width:0.5;"/><text fill="#000000" font-family="sans-serif" font-size="11" lengthAdjust="spacing" textLength="8.1069" x="161.651" y="423.8236">s&#237;</text><text fill="#000000" font-family="sans-serif" font-size="11" lengthAdjust="spacing" textLength="116.5332" x="99.3844" y="404.3327">Activated Component?</text><text fill="#000000" font-family="sans-serif" font-size="11" lengthAdjust="spacing" textLength="13.4529" x="73.9315" y="396.8417">no</text><rect fill="#F1F1F1" height="36.3441" rx="12.5" ry="12.5" style="stroke:#181818;stroke-width:0.5;" width="97.1845" x="109.0587" y="729.8469"/><text fill="#000000" font-family="sans-serif" font-size="12" lengthAdjust="spacing" textLength="77.1845" x="119.0587" y="752.675">app.unmount</text><rect fill="#F1F1F1" height="36.3441" rx="12.5" ry="12.5" style="stroke:#181818;stroke-width:0.5;" width="227.9855" x="43.6582" y="786.191"/><text fill="#000000" font-family="sans-serif" font-size="12" lengthAdjust="spacing" textLength="207.9855" x="53.6582" y="809.0191">beforeUnmount / onBeforeUnmount</text><rect fill="#F1F1F1" height="36.3441" rx="12.5" ry="12.5" style="stroke:#181818;stroke-width:0.5;" width="293.3019" x="11" y="842.5351"/><text fill="#000000" font-family="sans-serif" font-size="12" lengthAdjust="spacing" textLength="273.3019" x="21" y="865.3632">Teardown watchers, children and event listeners</text><rect fill="#F1F1F1" height="36.3441" rx="12.5" ry="12.5" style="stroke:#181818;stroke-width:0.5;" width="156.381" x="79.4605" y="898.8792"/><text fill="#000000" font-family="sans-serif" font-size="12" lengthAdjust="spacing" textLength="136.381" x="89.4605" y="921.7073">Component unmounted</text><rect fill="#F1F1F1" height="36.3441" rx="12.5" ry="12.5" style="stroke:#181818;stroke-width:0.5;" width="102.6566" x="106.3227" y="955.2233"/><text fill="#000000" font-family="sans-serif" font-size="12" lengthAdjust="spacing" textLength="82.6566" x="116.3227" y="978.0514">onUnmounted</text><ellipse cx="157.651" cy="1022.5675" fill="none" rx="11" ry="11" style="stroke:#222222;stroke-width:1;"/><ellipse cx="157.651" cy="1022.5675" fill="#222222" rx="6" ry="6" style="stroke:#222222;stroke-width:1;"/><line style="stroke:#181818;stroke-width:1;" x1="157.651" x2="157.651" y1="30" y2="50"/><polygon fill="#181818" points="153.651,40,157.651,50,161.651,40,157.651,44" style="stroke:#181818;stroke-width:1;"/><line style="stroke:#181818;stroke-width:1;" x1="157.651" x2="157.651" y1="86.3441" y2="106.3441"/><polygon fill="#181818" points="153.651,96.3441,157.651,106.3441,161.651,96.3441,157.651,100.3441" style="stroke:#181818;stroke-width:1;"/><line style="stroke:#181818;stroke-width:1;" x1="157.651" x2="157.651" y1="142.6882" y2="162.6882"/><polygon fill="#181818" points="153.651,152.6882,157.651,162.6882,161.651,152.6882,157.651,156.6882" style="stroke:#181818;stroke-width:1;"/><line style="stroke:#181818;stroke-width:1;" x1="157.651" x2="157.651" y1="199.0323" y2="219.0323"/><polygon fill="#181818" points="153.651,209.0323,157.651,219.0323,161.651,209.0323,157.651,213.0323" style="stroke:#181818;stroke-width:1;"/><line style="stroke:#181818;stroke-width:1;" x1="157.651" x2="157.651" y1="255.3765" y2="275.3765"/><polygon fill="#181818" points="153.651,265.3765,157.651,275.3765,161.651,265.3765,157.651,269.3765" style="stroke:#181818;stroke-width:1;"/><line style="stroke:#181818;stroke-width:1;" x1="157.651" x2="157.651" y1="311.7206" y2="331.7206"/><polygon fill="#181818" points="153.651,321.7206,157.651,331.7206,161.651,321.7206,157.651,325.7206" style="stroke:#181818;stroke-width:1;"/><line style="stroke:#181818;stroke-width:1;" x1="157.651" x2="157.651" y1="531.1587" y2="551.1587"/><polygon fill="#181818" points="153.651,541.1587,157.651,551.1587,161.651,541.1587,157.651,545.1587" style="stroke:#181818;stroke-width:1;"/><line style="stroke:#181818;stroke-width:1;" x1="157.651" x2="157.651" y1="587.5028" y2="607.5028"/><polygon fill="#181818" points="153.651,597.5028,157.651,607.5028,161.651,597.5028,157.651,601.5028" style="stroke:#181818;stroke-width:1;"/><line style="stroke:#181818;stroke-width:1;" x1="157.651" x2="157.651" y1="469.3236" y2="494.8145"/><polygon fill="#181818" points="153.651,484.8145,157.651,494.8145,161.651,484.8145,157.651,488.8145" style="stroke:#181818;stroke-width:1;"/><line style="stroke:#181818;stroke-width:1;" x1="212.8752" x2="269.1756" y1="457.3236" y2="457.3236"/><polygon fill="#181818" points="265.1756,559.3307,269.1756,569.3307,273.1756,559.3307,269.1756,563.3307" style="stroke:#181818;stroke-width:1;"/><line style="stroke:#181818;stroke-width:1;" x1="269.1756" x2="269.1756" y1="457.3236" y2="675.8469"/><line style="stroke:#181818;stroke-width:1;" x1="269.1756" x2="169.651" y1="675.8469" y2="675.8469"/><polygon fill="#181818" points="179.651,671.8469,169.651,675.8469,179.651,679.8469,175.651,675.8469" style="stroke:#181818;stroke-width:1;"/><line style="stroke:#181818;stroke-width:1;" x1="157.651" x2="157.651" y1="643.8469" y2="663.8469"/><polygon fill="#181818" points="153.651,653.8469,157.651,663.8469,161.651,653.8469,157.651,657.8469" style="stroke:#181818;stroke-width:1;"/><line style="stroke:#181818;stroke-width:1;" x1="157.651" x2="157.651" y1="412.0647" y2="445.3236"/><polygon fill="#181818" points="153.651,435.3236,157.651,445.3236,161.651,435.3236,157.651,439.3236" style="stroke:#181818;stroke-width:1;"/><line style="stroke:#181818;stroke-width:1;" x1="157.651" x2="157.651" y1="687.8469" y2="697.8469"/><line style="stroke:#181818;stroke-width:1;" x1="157.651" x2="293.1756" y1="697.8469" y2="697.8469"/><polygon fill="#181818" points="289.1756,559.8398,293.1756,549.8398,297.1756,559.8398,293.1756,555.8398" style="stroke:#181818;stroke-width:1;"/><line style="stroke:#181818;stroke-width:1;" x1="293.1756" x2="293.1756" y1="400.0647" y2="697.8469"/><line style="stroke:#181818;stroke-width:1;" x1="293.1756" x2="227.9176" y1="400.0647" y2="400.0647"/><polygon fill="#181818" points="237.9176,396.0647,227.9176,400.0647,237.9176,404.0647,233.9176,400.0647" style="stroke:#181818;stroke-width:1;"/><line style="stroke:#181818;stroke-width:1;" x1="87.3844" x2="34.1263" y1="400.0647" y2="400.0647"/><polygon fill="#181818" points="30.1263,545.8398,34.1263,555.8398,38.1263,545.8398,34.1263,549.8398" style="stroke:#181818;stroke-width:1;"/><line style="stroke:#181818;stroke-width:1;" x1="34.1263" x2="34.1263" y1="400.0647" y2="709.8469"/><line style="stroke:#181818;stroke-width:1;" x1="34.1263" x2="157.651" y1="709.8469" y2="709.8469"/><line style="stroke:#181818;stroke-width:1;" x1="157.651" x2="157.651" y1="709.8469" y2="729.8469"/><polygon fill="#181818" points="153.651,719.8469,157.651,729.8469,161.651,719.8469,157.651,723.8469" style="stroke:#181818;stroke-width:1;"/><line style="stroke:#181818;stroke-width:1;" x1="157.651" x2="157.651" y1="368.0647" y2="388.0647"/><polygon fill="#181818" points="153.651,378.0647,157.651,388.0647,161.651,378.0647,157.651,382.0647" style="stroke:#181818;stroke-width:1;"/><line style="stroke:#181818;stroke-width:1;" x1="157.651" x2="157.651" y1="766.191" y2="786.191"/><polygon fill="#181818" points="153.651,776.191,157.651,786.191,161.651,776.191,157.651,780.191" style="stroke:#181818;stroke-width:1;"/><line style="stroke:#181818;stroke-width:1;" x1="157.651" x2="157.651" y1="822.5351" y2="842.5351"/><polygon fill="#181818" points="153.651,832.5351,157.651,842.5351,161.651,832.5351,157.651,836.5351" style="stroke:#181818;stroke-width:1;"/><line style="stroke:#181818;stroke-width:1;" x1="157.651" x2="157.651" y1="878.8792" y2="898.8792"/><polygon fill="#181818" points="153.651,888.8792,157.651,898.8792,161.651,888.8792,157.651,892.8792" style="stroke:#181818;stroke-width:1;"/><line style="stroke:#181818;stroke-width:1;" x1="157.651" x2="157.651" y1="935.2233" y2="955.2233"/><polygon fill="#181818" points="153.651,945.2233,157.651,955.2233,161.651,945.2233,157.651,949.2233" style="stroke:#181818;stroke-width:1;"/><line style="stroke:#181818;stroke-width:1;" x1="157.651" x2="157.651" y1="991.5675" y2="1011.5675"/><polygon fill="#181818" points="153.651,1001.5675,157.651,1011.5675,161.651,1001.5675,157.651,1005.5675" style="stroke:#181818;stroke-width:1;"/><?plantuml-src JL6xSeGm3Epz5IfIm4mkwQ78vD4oQIxf7QmBdZ6onnR7L-KhycEHRGBNC9PsjRiIYNLafRg4l8JJ654pcbuQhtuErY6SSGvEchtgll3Y8mv-8OP7yFHor7b2X_1mXmvsaMxE49f27kex4vz7jbU4xE09o_0wPQ-c87du09zQi0cQzFlJAW1xWKRagy0uQVf68V24j5C0jg0VmOZKJTBQw2ldqqPUj8Etzm4YdYAImRXXIo7Mt7N8P4GezgBakwKbtsvhBpJNA_nRr_hMUsUSKKVZLu9LypXXJFUoY7L64e0c0tYLhS7Pn4Y2zlLNb5l0vbEEAz6EIYNsuGy0?></g></svg>